<?xml version="1.0" encoding="utf-8"?>
<!-- Generator: Adobe Illustrator 24.1.0, SVG Export Plug-In . SVG Version: 6.00 Build 0)  -->
<svg version="1.1" id="Layer_1" xmlns="http://www.w3.org/2000/svg" xmlns:xlink="http://www.w3.org/1999/xlink" x="0px" y="0px"
	 viewBox="0 0 1024 1024" style="enable-background:new 0 0 1024 1024;" xml:space="preserve">
<style type="text/css">
	.st0{fill-rule:evenodd;clip-rule:evenodd;fill:#00B902;}
	.st1{fill-rule:evenodd;clip-rule:evenodd;fill:#FFFFFF;}
</style>
<g id="LINE">
	<circle id="Oval_21_" class="st0" cx="512" cy="512" r="512"/>
	<path class="st1" d="M337.3,404.9h-21c-3.2,0-5.8,2.8-5.8,6.1v137.2c0,1.6,0.6,3.1,1.6,4.2l0.2,0.2c1,1.1,2.5,1.7,4,1.7h84
		c3.3,0,5.9-2.8,5.9-6.1v-22.1c0-3.3-2.7-6.1-5.9-6.1h-57.1V411C343.1,407.7,340.4,404.9,337.3,404.9z M712.1,404.9h-84
		c-1.5,0-3,0.6-4,1.7l-0.2,0.2c-1,1.1-1.6,2.6-1.6,4.2v137.2c0,1.6,0.6,3.1,1.6,4.2l0.2,0.2c1,1.1,2.5,1.7,4,1.7h84
		c3.3,0,5.9-2.8,5.9-6.1v-22.1c0-3.3-2.7-6.1-5.9-6.1H655v-23.2h57.1c3.3,0,5.9-2.8,5.9-6.1v-22.1c0-3.3-2.7-6.1-5.9-6.1H655v-23.2
		h57.1c3.2,0,5.9-2.8,5.9-6.2V411C717.9,407.7,715.3,404.9,712.1,404.9z M451.1,405h-21c-3.2,0-5.9,2.8-5.9,6.1v137.2
		c0,3.4,2.7,6.2,5.9,6.2h21c3.2,0,5.8-2.8,5.8-6.2V411.2C456.9,407.8,454.2,405,451.1,405z M569.8,552c0.4,0.7,0.9,1.1,1.4,1.5
		c0.3,0.1,0.4,0.1,0.5,0.2c0.1,0,0.1,0.1,0.2,0.1c0.1,0,0.2,0.1,0.3,0.1s0.2,0.1,0.3,0.1c0.1,0.1,0.1,0.1,0.2,0.1
		c0.1,0,0.3,0.1,0.4,0.1c0.6,0.1,1.1,0.2,1.6,0.2h21c3.3,0,5.9-2.8,5.9-6.2v-137c0-3.3-2.6-6.1-5.9-6.1v0.2h-21.5
		c-3.2,0-5.9,2.8-5.9,6.1v81.5l-59.9-85c-0.1-0.2-0.2-0.4-0.4-0.7c-0.1-0.2-0.2-0.3-0.3-0.4l-0.1-0.1c-0.1-0.1-0.2-0.2-0.3-0.3
		c0,0,0-0.1-0.1-0.1l-0.3-0.2c-0.1,0-0.1-0.1-0.2-0.1c-0.1-0.1-0.2-0.1-0.3-0.2c-0.1,0-0.1-0.1-0.2-0.1s-0.2-0.1-0.3-0.1
		c-0.1-0.1-0.1-0.1-0.2-0.1l-0.3-0.1c-0.1-0.1-0.1-0.1-0.2-0.1l-0.3-0.1h-22.1c-3.2,0-5.9,2.8-5.9,6.2v137.2c0,3.4,2.7,6.1,5.9,6.1
		h21c3.2,0,5.9-2.8,5.9-6.1v-81.5L569.8,552z M512,217.5h5c163.1,2.3,295,116.1,295,255.6c0,56.3-20.8,107.2-64.4,157.1
		c-62.9,76-203.7,168.6-235.7,182.9c-6.5,2.9-11.6,4.2-15.4,4.4h-1.2c-13.4-0.1-10.4-15.3-9.3-21.5c0.8-4.7,4.3-26.9,4.3-26.9
		c1-8,2.1-20.5-0.9-28.4c-3.4-8.7-16.7-13.2-26.5-15.5C318.7,705.2,212,599.4,212,473.1C212,332.1,346.6,217.5,512,217.5z"/>
</g>
<g id="channel-logos-white">
</g>
</svg>
