<?xml version="1.0" encoding="utf-8"?>
<!-- Generator: Adobe Illustrator 24.2.0, SVG Export Plug-In . SVG Version: 6.00 Build 0)  -->
<svg version="1.1" id="Layer_1" xmlns="http://www.w3.org/2000/svg" xmlns:xlink="http://www.w3.org/1999/xlink" x="0px" y="0px"
	 viewBox="0 0 1024 1024" style="enable-background:new 0 0 1024 1024;" xml:space="preserve">
<style type="text/css">
	.st0{fill-rule:evenodd;clip-rule:evenodd;fill:#09B83E;}
	.st1{fill-rule:evenodd;clip-rule:evenodd;fill:#FFFFFF;}
</style>
<g id="WeChat">
	<circle id="Oval_25_" class="st0" cx="512" cy="512" r="512"/>
	<g>
		<path class="st1" d="M812,591.7c0-85.5-80.9-154.8-180.7-154.8S450.5,506,450.5,591.7c0,85.2,80.9,154.4,180.8,154.8
			c20.6-0.3,40.5-3.4,59.3-9c1.4-0.4,1.2-0.3,4.9-1.1c3.6-0.7,6.8,1.1,9.5,2.6l39,23.7c1.9,1,2.9,1.5,4.3,1.5c3.2,0,5.9-2.7,5.7-5.9
			c0.1-1.8-0.5-3.2-0.9-4.6c-0.4-1.5-5.2-19.6-7.8-31c-0.3-1.6-0.5-2.5-0.5-5.6s1.5-6.3,4.9-9.3C787.6,680.1,812,638.2,812,591.7z
			 M569.8,564.9c-12.1,0-22.5-10.7-22.5-24.5c0-12.5,10.4-23.1,22.5-23.1c13.4,0,23.8,10.7,23.8,23.1
			C593.7,554.3,583.3,564.9,569.8,564.9z M689.8,564.9c-12.1,0-22.5-10.7-22.5-24.5c0-12.5,10.4-23.1,22.5-23.1
			c13.4,0,23.8,10.7,23.8,23.1C713.6,554.3,703.3,564.9,689.8,564.9z"/>
		<path class="st1" d="M631.3,422.1c3.8-0.1,7.7,0,11.6,0c-16.3-88.5-106-156.2-214-156.2c-119.9,0.1-217,83.1-217,186
			c0,55.4,29.2,105.7,75.2,139.9c3.4,2.5,5.2,5.5,5.2,10.4c0,1.7-0.3,3.5-0.8,5.9c-3.8,16.2-8.1,34.7-8.7,37.2s-1.5,4.1-1.4,5.9
			c-0.1,4.1,3.1,7.4,7.2,7.4c1.4,0,2.8-0.6,4.3-1.5l47.7-28.3c3-1.9,6.4-2.8,8.7-2.8c2.4,0,6.2,0.7,8.6,1.4c22.2,5.8,46,9.5,70.9,9
			c3.9,0.5,7.9,0.4,11.6,0c-4.5-14.2-7.1-29.4-7.2-44.7C433.5,497.6,521.9,421.9,631.3,422.1z M499.7,362.6
			c16,0,28.9,13.3,28.9,29.8c-0.1,16.5-13,29.8-28.9,29.8c-16,0-28.9-13.3-28.9-29.8C470.8,375.9,483.7,362.6,499.7,362.6z
			 M355.1,422.1c-16,0-28.9-13.3-28.9-29.8s12.9-29.8,28.9-29.8s28.9,13.3,28.9,29.8C384,408.8,371.1,422.1,355.1,422.1z"/>
	</g>
</g>
<g id="channel-logos-white">
</g>
</svg>
