<?xml version="1.0" encoding="utf-8"?>
<!-- Generator: Adobe Illustrator 26.0.2, SVG Export Plug-In . SVG Version: 6.00 Build 0)  -->
<svg version="1.1" id="Layer_1" xmlns="http://www.w3.org/2000/svg" xmlns:xlink="http://www.w3.org/1999/xlink" x="0px" y="0px"
	 viewBox="0 0 30 30" style="enable-background:new 0 0 30 30;" xml:space="preserve">
<style type="text/css">
	.st0{fill:#E65100;}
</style>
<g>
	<g>
		<g>
			<path class="st0" d="M13.3,19.1c-0.3,0-0.5-0.1-0.7-0.3c-0.9-0.9-1.4-2.1-1.4-3.4s0.5-2.5,1.4-3.4l5.9-5.9c1.9-1.9,4.9-1.9,6.7,0
				c0.9,0.9,1.4,2.1,1.4,3.4s-0.5,2.5-1.4,3.4l-2.9,2.9c-0.4,0.4-1,0.4-1.4,0s-0.4-1,0-1.4l2.9-2.9c0.5-0.5,0.8-1.2,0.8-1.9
				s-0.3-1.4-0.8-1.9c-1.1-1.1-2.8-1.1-3.9,0L14,13.5c-0.5,0.5-0.8,1.2-0.8,1.9c0,0.7,0.3,1.4,0.8,1.9c0.4,0.4,0.4,1,0,1.4
				C13.8,19,13.5,19.1,13.3,19.1z"/>
		</g>
		<g>
			<path class="st0" d="M8.2,27.9c-1.2,0-2.4-0.5-3.4-1.4c-1.9-1.9-1.9-4.9,0-6.7l2.9-2.9c0.4-0.4,1-0.4,1.4,0s0.4,1,0,1.4l-2.9,2.9
				c-1.1,1.1-1.1,2.8,0,3.9s2.8,1.1,3.9,0l5.9-5.9c1.1-1.1,1.1-2.8,0-3.9c-0.4-0.4-0.4-1,0-1.4s1-0.4,1.4,0c1.9,1.9,1.9,4.9,0,6.7
				l-5.9,5.9C10.6,27.4,9.4,27.9,8.2,27.9z"/>
		</g>
	</g>
	<g>
		<path class="st0" d="M12.2,9c-0.3,0-0.5-0.1-0.7-0.3c-0.4-0.4-0.4-1,0-1.4l1.8-1.8l-1.8-1.8c-0.4-0.4-0.4-1,0-1.4s1-0.4,1.4,0
			l2.5,2.5c0.4,0.4,0.4,1,0,1.4l-2.5,2.5C12.7,8.9,12.4,9,12.2,9z"/>
	</g>
	<g>
		<path class="st0" d="M4.4,16.5c-0.6,0-1-0.4-1-1V9.6c0-2.8,2.3-5,5-5h6.2c0.6,0,1,0.4,1,1s-0.4,1-1,1H8.5c-1.7,0-3,1.4-3,3v5.9
			C5.4,16,5,16.5,4.4,16.5z"/>
	</g>
</g>
</svg>
