<?xml version="1.0" encoding="utf-8"?>
<!-- Generator: Adobe Illustrator 24.1.0, SVG Export Plug-In . SVG Version: 6.00 Build 0)  -->
<svg version="1.1" id="Layer_1" xmlns="http://www.w3.org/2000/svg" xmlns:xlink="http://www.w3.org/1999/xlink" x="0px" y="0px"
	 viewBox="0 0 1024 1024" style="enable-background:new 0 0 1024 1024;" xml:space="preserve">
<style type="text/css">
	.st0{fill-rule:evenodd;clip-rule:evenodd;fill:#665CAC;}
	.st1{fill-rule:evenodd;clip-rule:evenodd;fill:#FFFFFF;}
</style>
<g id="Viber">
	<circle id="Oval_22_" class="st0" cx="512" cy="512" r="512"/>
	<path class="st1" d="M744.2,285.5c-15.7-13.7-79.3-57.5-220.7-58.1c0,0-166.9-9.6-248.2,61.2c-45.3,43-61.3,105.8-62.9,183.8
		c-1.7,78-3.9,223.9,144.6,263.6h0.1l-0.1,60.4c0,0-1,24.5,16,29.4c20.5,6.1,32.5-12.5,52.3-32.6c10.7-11,25.6-27.1,36.9-39.5
		c101.5,8.1,179.6-10.5,188.5-13.2c20.5-6.3,136.5-20.5,155.3-166.4C825.3,423.7,796.4,328.5,744.2,285.5 M761.5,563.4
		c-15.9,121.9-110.1,129.7-127.3,134.8c-7.4,2.3-75.9,18.4-162.1,13.1c0,0-64.3,73.4-84.3,92.7c-3.1,3-6.8,4.2-9.3,3.6
		c-3.5-0.8-4.3-4.7-4.3-10.4c0.1-8.1,0.5-100.4,0.5-100.4c-125.5-33-118.2-157.4-116.8-222.5c1.4-65.1,14.3-118.4,52.6-154.3
		c68.9-59,210.6-50.3,210.6-50.3c119.7,0.5,177.1,34.7,190.3,46.1C755.4,351.8,777.9,437.7,761.5,563.4 M534,417.1
		c16.5,0.8,29.4,5.7,38.2,14.4c8.9,8.6,13.8,21.2,14.5,37.2c0.1,2.8-2.1,5-5,5.2c0.1,0.1,0,0.1-0.1,0.1c-2.8,0-5.1-2.1-5.2-4.7
		c-1.4-27.4-15.1-40.8-43-42.2c-2.9-0.1-5.1-2.5-5-5.2C528.6,419.1,531.1,417,534,417.1 M592.9,416c-17.2-17.8-40.7-27.5-71.6-29.5
		c-2.9-0.2-5-2.6-4.9-5.3c0.2-2.8,2.7-4.7,5.5-4.6c33.3,2.3,59.8,13.3,78.6,32.7c18.9,19.5,28.1,44,27.4,73
		c-0.2,2.7-2.5,4.7-5.3,4.7h-0.1c-2.9-0.1-5.2-2.4-5.1-5C618.2,455.4,610.2,433.8,592.9,416 M622.9,380.5
		c30.8,28.6,46.6,68.1,47.1,117.3c0.1,2.7-2.3,4.9-5.2,4.9c-2.8,0-5.2-2.2-5.2-4.9c-0.3-46.5-15.2-83.5-43.9-110.3
		c-28.8-26.7-65.2-40.3-108.1-40.5c-2.9,0-5.2-2.3-5.2-4.9c0-2.7,2.4-4.9,5.2-4.9C553.2,337.4,592,352,622.9,380.5 M659,612.5
		c0,0.1-0.1,0.2-0.1,0.2c-6.1,10.2-14.2,19.9-24.6,28.7c-0.1,0.1-0.1,0.1-0.2,0.2c-8.5,6.7-16.8,10.5-24.9,11.4
		c-1,0.2-2.2,0.3-3.6,0.2c-3.6,0-7.2-0.4-10.6-1.5l-0.3-0.4c-12.6-3.3-33.6-11.8-68.6-30c-22.8-11.9-41.6-24.1-57.6-36.1
		c-8.5-6.3-17.1-13.5-25.9-21.8c-0.3-0.3-0.5-0.5-0.9-0.8l-0.9-0.8c-0.3-0.3-0.5-0.5-0.9-0.8c-0.3-0.3-0.5-0.5-0.9-0.8
		c-8.8-8.3-16.4-16.6-23-24.6c-12.7-15.1-25.6-33.1-38.1-54.6c-19.3-33.2-28.2-53.2-31.7-65.1l-0.4-0.3c-1.2-3.3-1.7-6.7-1.6-10.1
		c-0.1-1.3,0-2.6,0.2-3.4c1-7.7,5-15.6,12-23.7c0.1-0.1,0.1-0.1,0.2-0.2c9.4-9.8,19.4-17.6,30.3-23.3c0.1,0,0.2-0.1,0.2-0.1
		c11.4-5.6,22.2-3.7,29.5,4.6c0.1,0.1,15.3,17.4,21.8,25.8c6.2,8,14.5,20.7,18.7,27.9c7.5,12.7,2.8,25.8-4.6,31.3l-14.9,11.2
		c-7.5,5.7-6.5,16.3-6.5,16.3s22.1,79,104.3,98.9c0,0,11.3,0.9,17.2-6.2l11.8-14.1c5.8-7,19.4-11.4,33-4.3
		c7.5,4,20.9,11.9,29.4,17.7c8.9,6.2,27.2,20.7,27.2,20.7C662.9,591.4,664.8,601.7,659,612.5"/>
</g>
<g id="channel-logos-white">
</g>
</svg>
